<mxfile host="Electron" agent="Mozilla/5.0 (Windows NT 10.0; Win64; x64) AppleWebKit/537.36 (KHTML, like Gecko) draw.io/24.7.17 Chrome/128.0.6613.36 Electron/32.0.1 Safari/537.36" version="24.7.17">
  <diagram name="Page-1" id="90a13364-a465-7bf4-72fc-28e22215d7a0">
    <mxGraphModel dx="1840" dy="860" grid="1" gridSize="10" guides="1" tooltips="1" connect="1" arrows="1" fold="1" page="1" pageScale="1.5" pageWidth="1169" pageHeight="826" background="none" math="0" shadow="0">
      <root>
        <mxCell id="0" style=";html=1;" />
        <mxCell id="1" style=";html=1;" parent="0" />
        <mxCell id="zMM4AH2HvZYqn0vc6SCV-10" value="&lt;font style=&quot;font-size: 24px;&quot;&gt;IESA&lt;/font&gt;" style="ellipse;whiteSpace=wrap;html=1;aspect=fixed;fillColor=#99CCFF;" parent="1" vertex="1">
          <mxGeometry x="730" y="520" width="210" height="210" as="geometry" />
        </mxCell>
        <mxCell id="zMM4AH2HvZYqn0vc6SCV-12" value="&lt;font style=&quot;font-size: 18px;&quot;&gt;Energy Planner&lt;/font&gt;" style="rounded=0;whiteSpace=wrap;html=1;fillColor=#99CCFF;" parent="1" vertex="1">
          <mxGeometry x="250" y="440" width="160" height="70" as="geometry" />
        </mxCell>
        <mxCell id="zMM4AH2HvZYqn0vc6SCV-15" value="" style="endArrow=classic;html=1;rounded=0;exitX=1;exitY=0.5;exitDx=0;exitDy=0;entryX=0.5;entryY=0;entryDx=0;entryDy=0;" parent="1" source="zMM4AH2HvZYqn0vc6SCV-12" target="zMM4AH2HvZYqn0vc6SCV-10" edge="1">
          <mxGeometry width="50" height="50" relative="1" as="geometry">
            <mxPoint x="850" y="630" as="sourcePoint" />
            <mxPoint x="840" y="480" as="targetPoint" />
            <Array as="points">
              <mxPoint x="835" y="475" />
            </Array>
          </mxGeometry>
        </mxCell>
        <mxCell id="zMM4AH2HvZYqn0vc6SCV-16" value="&lt;font face=&quot;Verdana&quot; style=&quot;font-size: 18px;&quot;&gt;2a&amp;nbsp; Request View Dashboard&lt;/font&gt;" style="text;html=1;align=center;verticalAlign=middle;whiteSpace=wrap;rounded=0;" parent="1" vertex="1">
          <mxGeometry x="460" y="430" width="270" height="40" as="geometry" />
        </mxCell>
        <mxCell id="zMM4AH2HvZYqn0vc6SCV-18" value="" style="endArrow=classic;html=1;rounded=0;entryX=0.438;entryY=1;entryDx=0;entryDy=0;entryPerimeter=0;" parent="1" target="zMM4AH2HvZYqn0vc6SCV-12" edge="1">
          <mxGeometry width="50" height="50" relative="1" as="geometry">
            <mxPoint x="750.6676855539645" y="563.1776414225455" as="sourcePoint" />
            <mxPoint x="320" y="520" as="targetPoint" />
            <Array as="points">
              <mxPoint x="320" y="560" />
            </Array>
          </mxGeometry>
        </mxCell>
        <mxCell id="zMM4AH2HvZYqn0vc6SCV-20" value="&lt;font face=&quot;Verdana&quot; style=&quot;font-size: 18px;&quot;&gt;2b Dashboard Displayed&lt;/font&gt;" style="text;html=1;align=center;verticalAlign=middle;whiteSpace=wrap;rounded=0;" parent="1" vertex="1">
          <mxGeometry x="460" y="520" width="230" height="30" as="geometry" />
        </mxCell>
        <mxCell id="zMM4AH2HvZYqn0vc6SCV-25" value="&lt;font style=&quot;font-size: 18px;&quot;&gt;Input Entry Operator&lt;/font&gt;" style="rounded=0;whiteSpace=wrap;html=1;fillColor=#99CCFF;" parent="1" vertex="1">
          <mxGeometry x="1250" y="440" width="190" height="70" as="geometry" />
        </mxCell>
        <mxCell id="zMM4AH2HvZYqn0vc6SCV-33" value="" style="endArrow=classic;html=1;rounded=0;exitX=0;exitY=0;exitDx=0;exitDy=0;entryX=0.714;entryY=0.939;entryDx=0;entryDy=0;entryPerimeter=0;" parent="1" source="zMM4AH2HvZYqn0vc6SCV-12" target="zMM4AH2HvZYqn0vc6SCV-10" edge="1">
          <mxGeometry width="50" height="50" relative="1" as="geometry">
            <mxPoint x="240" y="450" as="sourcePoint" />
            <mxPoint x="870" y="740" as="targetPoint" />
            <Array as="points">
              <mxPoint x="160" y="440" />
              <mxPoint x="160" y="840" />
              <mxPoint x="880" y="840" />
              <mxPoint x="880" y="790" />
            </Array>
          </mxGeometry>
        </mxCell>
        <mxCell id="zMM4AH2HvZYqn0vc6SCV-34" value="&lt;font face=&quot;Verdana&quot;&gt;&lt;span style=&quot;font-size: 18px;&quot;&gt;3a Request Report&lt;/span&gt;&lt;/font&gt;" style="text;html=1;align=center;verticalAlign=middle;whiteSpace=wrap;rounded=0;" parent="1" vertex="1">
          <mxGeometry x="420" y="810" width="230" height="30" as="geometry" />
        </mxCell>
        <mxCell id="zMM4AH2HvZYqn0vc6SCV-36" value="" style="endArrow=classic;html=1;rounded=0;exitX=0.912;exitY=0.796;exitDx=0;exitDy=0;exitPerimeter=0;" parent="1" source="zMM4AH2HvZYqn0vc6SCV-10" edge="1">
          <mxGeometry width="50" height="50" relative="1" as="geometry">
            <mxPoint x="920" y="880" as="sourcePoint" />
            <mxPoint x="320" y="437" as="targetPoint" />
            <Array as="points">
              <mxPoint x="920" y="880" />
              <mxPoint x="120" y="880" />
              <mxPoint x="120" y="400" />
              <mxPoint x="320" y="400" />
            </Array>
          </mxGeometry>
        </mxCell>
        <mxCell id="zMM4AH2HvZYqn0vc6SCV-37" value="&lt;font face=&quot;Verdana&quot;&gt;&lt;span style=&quot;font-size: 18px;&quot;&gt;3b&amp;nbsp; Report generated successfully&lt;/span&gt;&lt;/font&gt;" style="text;html=1;align=center;verticalAlign=middle;whiteSpace=wrap;rounded=0;" parent="1" vertex="1">
          <mxGeometry x="420" y="850" width="330" height="30" as="geometry" />
        </mxCell>
        <mxCell id="zMM4AH2HvZYqn0vc6SCV-38" value="" style="endArrow=classic;html=1;rounded=0;exitX=0.586;exitY=1.02;exitDx=0;exitDy=0;exitPerimeter=0;entryX=1.007;entryY=0.565;entryDx=0;entryDy=0;entryPerimeter=0;" parent="1" target="zMM4AH2HvZYqn0vc6SCV-10" edge="1">
          <mxGeometry width="50" height="50" relative="1" as="geometry">
            <mxPoint x="1361.3399999999997" y="510.0000000000001" as="sourcePoint" />
            <mxPoint x="940" y="623.6" as="targetPoint" />
            <Array as="points">
              <mxPoint x="1361" y="639" />
              <mxPoint x="1150" y="639" />
              <mxPoint x="1040" y="639" />
              <mxPoint x="980" y="639" />
            </Array>
          </mxGeometry>
        </mxCell>
        <mxCell id="zMM4AH2HvZYqn0vc6SCV-39" value="&lt;font face=&quot;Verdana&quot; style=&quot;font-size: 18px;&quot;&gt;1a Input Historical data&lt;/font&gt;" style="text;html=1;align=center;verticalAlign=middle;whiteSpace=wrap;rounded=0;" parent="1" vertex="1">
          <mxGeometry x="1020" y="605" width="270" height="30" as="geometry" />
        </mxCell>
        <mxCell id="zMM4AH2HvZYqn0vc6SCV-40" value="" style="endArrow=classic;html=1;rounded=0;exitX=0.925;exitY=0.755;exitDx=0;exitDy=0;exitPerimeter=0;entryX=0.789;entryY=1;entryDx=0;entryDy=0;entryPerimeter=0;" parent="1" source="zMM4AH2HvZYqn0vc6SCV-10" target="zMM4AH2HvZYqn0vc6SCV-25" edge="1">
          <mxGeometry width="50" height="50" relative="1" as="geometry">
            <mxPoint x="850" y="620" as="sourcePoint" />
            <mxPoint x="1403" y="507" as="targetPoint" />
            <Array as="points">
              <mxPoint x="1400" y="679" />
            </Array>
          </mxGeometry>
        </mxCell>
        <mxCell id="zMM4AH2HvZYqn0vc6SCV-41" value="&lt;font face=&quot;Verdana&quot;&gt;&lt;span style=&quot;font-size: 18px;&quot;&gt;1b data updated successfully&lt;/span&gt;&lt;/font&gt;" style="text;html=1;align=center;verticalAlign=middle;whiteSpace=wrap;rounded=0;" parent="1" vertex="1">
          <mxGeometry x="1020" y="650" width="270" height="30" as="geometry" />
        </mxCell>
        <mxCell id="zMM4AH2HvZYqn0vc6SCV-42" value="" style="endArrow=classic;html=1;rounded=0;exitX=0.946;exitY=-0.02;exitDx=0;exitDy=0;exitPerimeter=0;entryX=0.918;entryY=0.776;entryDx=0;entryDy=0;entryPerimeter=0;" parent="1" source="zMM4AH2HvZYqn0vc6SCV-12" target="zMM4AH2HvZYqn0vc6SCV-10" edge="1">
          <mxGeometry width="50" height="50" relative="1" as="geometry">
            <mxPoint x="390" y="360" as="sourcePoint" />
            <mxPoint x="960" y="730" as="targetPoint" />
            <Array as="points">
              <mxPoint x="400" y="360" />
              <mxPoint x="80" y="360" />
              <mxPoint x="80" y="920" />
              <mxPoint x="960" y="920" />
              <mxPoint x="960" y="720" />
            </Array>
          </mxGeometry>
        </mxCell>
        <mxCell id="zMM4AH2HvZYqn0vc6SCV-43" value="&lt;font face=&quot;Verdana&quot;&gt;&lt;span style=&quot;font-size: 18px;&quot;&gt;4a Request&amp;nbsp; Personalized Recommendations&lt;/span&gt;&lt;/font&gt;" style="text;html=1;align=center;verticalAlign=middle;whiteSpace=wrap;rounded=0;" parent="1" vertex="1">
          <mxGeometry x="400" y="890" width="410" height="30" as="geometry" />
        </mxCell>
        <mxCell id="zMM4AH2HvZYqn0vc6SCV-44" value="" style="endArrow=classic;html=1;rounded=0;exitX=0.932;exitY=0.721;exitDx=0;exitDy=0;exitPerimeter=0;entryX=1;entryY=0.25;entryDx=0;entryDy=0;" parent="1" source="zMM4AH2HvZYqn0vc6SCV-10" target="zMM4AH2HvZYqn0vc6SCV-12" edge="1">
          <mxGeometry width="50" height="50" relative="1" as="geometry">
            <mxPoint x="940" y="680" as="sourcePoint" />
            <mxPoint x="480" y="400" as="targetPoint" />
            <Array as="points">
              <mxPoint x="1000" y="720" />
              <mxPoint x="1000" y="960" />
              <mxPoint x="40" y="960" />
              <mxPoint x="40" y="320" />
              <mxPoint x="480" y="320" />
              <mxPoint x="480" y="400" />
            </Array>
          </mxGeometry>
        </mxCell>
        <mxCell id="zMM4AH2HvZYqn0vc6SCV-45" value="&lt;font face=&quot;Verdana&quot;&gt;&lt;span style=&quot;font-size: 18px;&quot;&gt;4b Recommendation provided successfully&lt;/span&gt;&lt;/font&gt;" style="text;html=1;align=center;verticalAlign=middle;whiteSpace=wrap;rounded=0;" parent="1" vertex="1">
          <mxGeometry x="400" y="930" width="410" height="30" as="geometry" />
        </mxCell>
      </root>
    </mxGraphModel>
  </diagram>
</mxfile>
